<svg xmlns="http://www.w3.org/2000/svg" viewBox="0 0 1920 1920">
  <defs>
    <clipPath id="logo">
      <rect x="0" y="0" width="1920" height="1920" />
    </clipPath>
  </defs>
  <g clip-path="url(#logo)">
          <rect fill="white" width="1920" height="1920"/>
    <g transform="scale(4.8)">
      <g font-family="none" font-size="none" font-weight="none" stroke-miterlimit="10" style="mix-blend-mode:normal" text-anchor="none">
<g fill="#424242" id="symbol" stroke="#424242">
<path d="m41.304 173.34c3.6322-3.4213 9.0062-4.9601 13.873-3.6946 3.1166 0.86704 5.7724 2.8589 8.147 4.9991 4.4055 3.9759 8.4204 8.3579 12.724 12.451 4.9601-4.4367 9.5452-9.2952 14.63-13.607 2.8589-2.4996 6.3739-4.6554 10.326-4.382 4.5148-0.26558 8.6703 2.2262 11.443 5.6474 7.9439 9.6389 11.529 22.848 9.0375 35.15-1.6091 7.2565-4.6867 15.052-11.521 18.856-3.2494 2.2418-7.3268 2.1793-11.084 1.8278 0.01562-1.1248 0.04686-2.234 0.0703-3.351 6.0692 0.20308 12.287-2.976 15.013-8.5141 3.6634-7.8267 5.1554-16.841 3.2494-25.339-1.3123-4.9835-3.39-9.7795-6.1864-14.099-2.1012-3.1401-5.2491-6.1317-9.2405-6.2255-2.9292-0.29682-5.624 1.1639-7.8111 2.9526-6.3661 5.1632-11.849 11.279-17.934 16.747-5.7021-5.3506-10.92-11.209-16.864-16.286-3.0229-2.7417-7.3581-4.3274-11.334-2.812-5.085 2.0934-7.694 7.28-9.9826 11.943-5.0772 9.6389-4.6554 21.488-0.51553 31.385 1.5856 4.093 5.0694 7.155 8.9672 9.0062 2.648 1.2888 5.6631 0.9061 8.5141 0.88266-0.03124 1.2498-0.04686 2.5074-0.06248 3.7728-5.2022 0.71081-11.014 0.17184-15.083-3.4759-5.7802-5.1319-8.2954-12.896-9.3577-20.332-0.63269-6.5926-0.53115-13.505 2.1402-19.684 2.1481-5.0304 4.796-10.037 8.8422-13.818z"/>
<path d="m41.906 187.22c1.9293-3.7025 3.6946-8.889 8.4829-9.4749 3.1401-0.66395 5.8427 1.3982 7.9673 3.4447 5.9911 5.8115 11.342 12.271 17.661 17.739 6.288-6.0302 12.404-12.256 18.63-18.356 2.3511-2.3355 5.9208-4.5148 9.264-2.9057 3.0854 1.7888 4.468 5.2959 5.9755 8.3423 3.1869 6.5379 4.5461 14.068 3.0854 21.262-0.96858 4.8585-2.0699 10.326-6.1552 13.599-2.6558 2.2808-6.9363 2.8042-9.7014 0.44523-6.6707-5.1632-12.029-11.748-18.137-17.513-2.2808 0.32807-4.796-0.49209-6.9206 0.34369-5.749 5.1554-10.584 11.264-16.169 16.606-2.6714 2.7339-7.2487 2.6402-10.233 0.47647-2.7339-1.8668-3.9602-5.1085-5.0616-8.0845-2.8589-8.3579-2.9057-18.005 1.3123-25.925m7.5768-4.9366c-2.6011 3.2182-3.8118 7.3034-5.1788 11.154-2.234 6.3114-1.3748 13.326 1.0779 19.434 1.0311 2.3746 2.7261 5.1163 5.585 5.335 1.5232-0.31245 2.5074-1.695 3.5853-2.7183 4.9366-5.5068 10.568-10.35 15.263-16.075-4.757-5.3819-9.9904-10.318-14.974-15.489-1.3513-1.281-3.5853-3.5462-5.3584-1.6403m46.921 2.4136c-4.7414 4.9835-9.8889 9.5764-14.404 14.779 4.9601 5.7802 10.607 10.912 15.747 16.536 1.2654 1.3748 3.2104 2.8979 5.1397 1.7966 3.4916-2.2418 4.4133-6.7019 5.3975-10.451 1.9606-8.2017-0.81236-16.583-4.6242-23.808-0.61707-0.96076-1.3201-2.2105-2.648-2.0309-1.945 0.22652-3.2494 1.9293-4.6086 3.1791z"/>
</g>
<g fill="#424242" id="text">
<path d="m144.78 210.96h-4.5816v-22.19l11.482 10.304 11.187-10.304v22.19h-4.5632v-12.383l-6.5872 6.4952-6.9368-6.624zm32.218-8.3168-8.4456-13.561h5.1704l5.612 8.832 5.5752-8.832h5.2072l-8.4456 13.616v8.2616h-4.6736zm17.48-9.3472 10.12-4.5264v22.19h-4.7656v-15.732l-5.3544 2.3zm27.582 17.977c-1.7787 0-3.3488-0.46613-4.7104-1.3984-1.3616-0.93227-2.4165-2.2387-3.1648-3.9192-0.76054-1.6805-1.1408-3.6616-1.1408-5.9432 0-2.2816 0.38026-4.2627 1.1408-5.9432 0.74827-1.6928 1.8032-3.0053 3.1648-3.9376 1.3616-0.93227 2.9317-1.3984 4.7104-1.3984 1.8155 0 3.3979 0.46613 4.7472 1.3984 1.3616 0.93227 2.4165 2.2448 3.1648 3.9376 0.76054 1.6805 1.1408 3.6616 1.1408 5.9432 0 2.2816-0.38026 4.2627-1.1408 5.9432-0.74827 1.6805-1.8032 2.9869-3.1648 3.9192-1.3493 0.93227-2.9317 1.3984-4.7472 1.3984zm-4.1584-11.261c0 1.3493 0.17787 2.5453 0.5336 3.588 0.35573 1.0427 0.8464 1.8584 1.472 2.4472 0.61333 0.5888 1.3309 0.8832 2.1528 0.8832 0.8464 0 1.5763-0.29441 2.1896-0.8832 0.6256-0.5888 1.1163-1.4045 1.472-2.4472s0.5336-2.2387 0.5336-3.588c0-1.3616-0.17787-2.5637-0.5336-3.6064-0.35573-1.0427-0.8464-1.8584-1.472-2.4472-0.61333-0.5888-1.3432-0.8832-2.1896-0.8832-0.82186 0-1.5456 0.29441-2.1712 0.8832-0.6256 0.5888-1.1163 1.4045-1.472 2.4472-0.34347 1.0427-0.5152 2.2448-0.5152 3.6064zm18.639-10.93h5.428l5.52 7.4336 5.5016-7.4336h5.4096l-7.9488 10.782 8.2616 11.095h-5.4648l-5.7592-7.728-5.8144 7.728h-5.428l8.2616-11.132zm42.118 2.0056v5.1888c-0.71146-0.93227-1.6683-1.7051-2.8704-2.3184-1.2144-0.60107-2.5331-0.90161-3.956-0.90161-1.0181 0-1.8645 0.17787-2.5392 0.5336-0.66239 0.35573-0.99361 0.85867-0.99361 1.5088 0 0.49067 0.14719 0.87093 0.4416 1.1408s0.66854 0.48454 1.1224 0.64401c0.46613 0.15947 0.9384 0.32507 1.4168 0.4968l2.9072 0.8464c0.99361 0.29441 1.9013 0.69307 2.7232 1.196 0.83414 0.50294 1.5088 1.1653 2.024 1.9872 0.5152 0.82186 0.7728 1.8645 0.7728 3.128 0 1.3861-0.35573 2.5821-1.0672 3.588-0.71146 1.0059-1.6989 1.7848-2.9624 2.3368-1.2635 0.53973-2.7171 0.80961-4.3608 0.80961-0.96907 0-1.9504-0.09813-2.944-0.29441-0.99361-0.19626-1.8952-0.47226-2.7048-0.82799-0.80961-0.368-1.4352-0.76667-1.8768-1.196v-5.1888c0.45386 0.61333 1.0856 1.1653 1.8952 1.656 0.80961 0.47839 1.7051 0.85867 2.6864 1.1408s1.9504 0.4232 2.9072 0.4232c1.0549 0 1.9197-0.184 2.5944-0.55201 0.67467-0.368 1.012-0.90774 1.012-1.6192 0-0.71146-0.31279-1.2144-0.9384-1.5088-0.61333-0.29441-1.3187-0.54586-2.116-0.75439l-2.9072-0.8648c-0.94453-0.26987-1.8339-0.65014-2.668-1.1408-0.83414-0.50294-1.5088-1.1531-2.024-1.9504-0.5152-0.80961-0.7728-1.8277-0.7728-3.0544 0-1.3861 0.368-2.5883 1.104-3.6064 0.73601-1.0181 1.7357-1.8032 2.9992-2.3552 1.2635-0.53973 2.6864-0.80961 4.2688-0.80961 1.3616 0 2.6803 0.22079 3.956 0.66239 1.2635 0.4416 2.2203 0.99361 2.8704 1.656zm10.23 19.872h-4.8208l11.463-22.19 11.518 22.19h-5.0784l-1.8952-3.7536h-9.292zm6.5504-12.954-2.7048 5.3176h5.3912zm17.406-8.924h4.6736v17.443h9.5312v4.4344h-14.205zm34.684 21.878h-14.186v-21.878h14.186v4.416h-9.5128v4.2504h9.108v4.2504h-9.108v4.5448h9.5128zm21.418-19.872v5.1888c-0.71146-0.93227-1.6744-1.7051-2.8888-2.3184-1.2021-0.60107-2.5208-0.90161-3.956-0.90161-1.0059 0-1.8461 0.17787-2.5208 0.5336s-1.012 0.85867-1.012 1.5088c0 0.49067 0.14719 0.87093 0.4416 1.1408s0.67467 0.48454 1.1408 0.64401 0.9384 0.32507 1.4168 0.4968l2.9072 0.8464c0.98133 0.29441 1.8891 0.69307 2.7232 1.196 0.83414 0.50294 1.5088 1.1653 2.024 1.9872 0.5152 0.82186 0.7728 1.8645 0.7728 3.128 0 1.3861-0.36187 2.5821-1.0856 3.588-0.71146 1.0059-1.6989 1.7848-2.9624 2.3368-1.2512 0.53973-2.6987 0.80961-4.3424 0.80961-0.96907 0-1.9504-0.09813-2.944-0.29441-1.0059-0.19626-1.9136-0.47226-2.7232-0.82799-0.80961-0.368-1.4352-0.76667-1.8768-1.196v-5.1888c0.46613 0.61333 1.104 1.1653 1.9136 1.656 0.80961 0.47839 1.7051 0.85867 2.6864 1.1408 0.96907 0.28213 1.9381 0.4232 2.9072 0.4232 1.0549 0 1.9197-0.184 2.5944-0.55201 0.67467-0.368 1.012-0.90774 1.012-1.6192 0-0.71146-0.31279-1.2144-0.9384-1.5088-0.6256-0.29441-1.3371-0.54586-2.1344-0.75439l-2.8888-0.8648c-0.9568-0.26987-1.8461-0.65014-2.668-1.1408-0.83414-0.50294-1.5088-1.1531-2.024-1.9504-0.5152-0.80961-0.7728-1.8277-0.7728-3.0544 0-1.3861 0.368-2.5883 1.104-3.6064 0.73601-1.0181 1.7357-1.8032 2.9992-2.3552 1.2635-0.53973 2.6803-0.80961 4.2504-0.80961 1.3739 0 2.6925 0.22079 3.956 0.66239 1.2757 0.4416 2.2387 0.99361 2.8888 1.656z"/>
</g>
</g>
    </g>
  </g>
</svg>