<svg width="512" height="512" viewBox="0 0 512 512" fill="none" xmlns="http://www.w3.org/2000/svg">
<mask id="mask0_2_30" style="mask-type:luminance" maskUnits="userSpaceOnUse" x="0" y="0" width="512" height="512">
<path d="M512 0H0V512H512V0Z" fill="white"/>
</mask>
<g mask="url(#mask0_2_30)">
<path d="M504 194H16V321H504V194Z" fill="white"/>
<path d="M52.4689 221.449C57.1181 217.07 63.9969 215.1 70.2264 216.72C74.2156 217.83 77.615 220.379 80.6545 223.119C86.2936 228.208 91.4326 233.817 96.9412 239.056C103.29 233.377 109.159 227.158 115.668 221.639C119.327 218.439 123.826 215.68 128.885 216.03C134.664 215.69 139.983 218.88 143.532 223.259C153.7 235.596 158.289 252.504 155.1 268.251C153.04 277.539 149.101 287.517 140.353 292.386C136.194 295.256 130.975 295.176 126.166 294.726C126.186 293.286 126.226 291.866 126.256 290.437C134.024 290.697 141.983 286.627 145.472 279.539C150.161 269.52 152.071 257.982 149.631 247.105C147.952 240.726 145.292 234.587 141.713 229.058C139.023 225.039 134.994 221.209 129.885 221.089C126.136 220.709 122.686 222.579 119.887 224.869C111.738 231.478 104.72 239.306 96.9313 246.305C89.6326 239.456 82.9537 231.957 75.3453 225.459C71.476 221.949 65.927 219.92 60.8378 221.859C54.329 224.539 50.9895 231.178 48.0601 237.146C41.5613 249.484 42.1012 264.651 47.4002 277.319C49.4298 282.558 53.8891 286.478 58.8782 288.847C62.2677 290.497 66.127 290.007 69.7763 289.977C69.7363 291.577 69.7163 293.186 69.6963 294.806C63.0375 295.716 55.5984 295.026 50.3901 290.357C42.9914 283.788 39.772 273.85 38.4122 264.332C37.6024 255.894 37.7323 247.046 41.1517 239.137C43.9012 232.698 47.2898 226.289 52.4689 221.449Z" fill="#424242" stroke="#424242" stroke-width="4.8" stroke-miterlimit="10"/>
<path d="M53.2395 239.215C55.709 234.476 57.9686 227.837 64.0976 227.087C68.1169 226.238 71.5763 228.877 74.2957 231.497C81.9644 238.935 88.8135 247.204 96.9018 254.203C104.95 246.484 112.779 238.515 120.748 230.707C123.758 227.717 128.327 224.928 132.606 226.988C136.555 229.277 138.325 233.766 140.255 237.666C144.334 246.034 146.074 255.673 144.204 264.881C142.964 271.1 141.555 278.098 136.325 282.288C132.926 285.207 127.447 285.877 123.908 282.858C115.369 276.249 108.511 267.82 100.692 260.441C97.7729 260.861 94.5534 259.811 91.8339 260.881C84.4752 267.48 78.2864 275.299 71.1376 282.137C67.7182 285.636 61.8593 285.516 58.0394 282.747C54.54 280.357 52.9703 276.208 51.5605 272.398C47.9011 261.7 47.8404 249.353 53.2395 239.215ZM62.9386 232.896C59.6092 237.015 58.0595 242.244 56.3097 247.173C53.4502 255.251 54.55 264.23 57.6894 272.048C59.0092 275.088 61.1788 278.597 64.8382 278.877C66.7879 278.477 68.0477 276.707 69.4274 275.398C75.7462 268.349 82.9544 262.15 88.964 254.822C82.8751 247.933 76.1763 241.615 69.7973 234.996C68.0677 233.356 65.2081 230.456 62.9386 232.896ZM122.997 235.985C116.928 242.364 110.34 248.243 104.56 254.903C110.909 262.301 118.137 268.87 124.716 276.069C126.336 277.828 128.826 279.778 131.295 278.368C135.765 275.499 136.944 269.79 138.204 264.991C140.714 254.493 137.164 243.765 132.285 234.517C131.495 233.287 130.595 231.687 128.896 231.917C126.406 232.207 124.736 234.387 122.997 235.987L122.997 235.985Z" fill="#424242" stroke="#424242" stroke-width="4.8" stroke-miterlimit="10"/>
<path d="M184.918 269.603H179.054V241.199L193.751 254.388L208.07 241.199V269.603H202.229V253.752L193.798 262.066L184.918 253.587L184.918 269.603ZM226.157 258.957L215.347 241.599H221.965L229.148 252.904L236.285 241.599H242.95L232.139 259.027V269.602H226.157V258.957ZM248.532 246.993L261.485 241.199V269.602H255.385V249.465L248.532 252.409V246.993ZM283.837 270.003C281.56 270.003 279.55 269.407 277.807 268.213C276.064 267.02 274.714 265.348 273.756 263.197C272.783 261.046 272.296 258.51 272.296 255.589C272.296 252.669 272.783 250.133 273.756 247.982C274.714 245.815 276.064 244.135 277.807 242.942C279.55 241.749 281.56 241.152 283.837 241.152C286.16 241.152 288.186 241.749 289.913 242.942C291.656 244.135 293.006 245.815 293.964 247.982C294.937 250.133 295.424 252.669 295.424 255.589C295.424 258.51 294.937 261.046 293.964 263.197C293.006 265.348 291.656 267.02 289.913 268.213C288.186 269.407 286.16 270.003 283.837 270.003ZM278.514 255.589C278.514 257.316 278.742 258.847 279.197 260.182C279.652 261.516 280.28 262.56 281.081 263.314C281.866 264.068 282.785 264.445 283.837 264.445C284.92 264.445 285.854 264.068 286.639 263.314C287.44 262.56 288.068 261.516 288.523 260.182C288.979 258.847 289.206 257.316 289.206 255.589C289.206 253.846 288.979 252.308 288.523 250.973C288.068 249.638 287.44 248.594 286.639 247.84C285.854 247.087 284.92 246.71 283.837 246.71C282.785 246.71 281.858 247.087 281.057 247.84C280.257 248.594 279.629 249.638 279.173 250.973C278.734 252.308 278.514 253.846 278.514 255.589ZM302.372 241.599H309.32L316.385 251.114L323.427 241.599H330.352L320.177 255.4L330.752 269.601H323.757L316.385 259.709L308.943 269.601H301.995L312.57 255.352L302.372 241.599ZM356.283 244.166V250.808C355.372 249.614 354.147 248.625 352.609 247.84C351.054 247.071 349.366 246.686 347.545 246.686C346.242 246.686 345.158 246.914 344.295 247.369C343.447 247.824 343.023 248.468 343.023 249.3C343.023 249.928 343.211 250.415 343.588 250.76C343.965 251.106 344.444 251.381 345.025 251.585C345.622 251.789 346.226 252.001 346.838 252.221L350.56 253.304C351.831 253.681 352.993 254.191 354.045 254.835C355.113 255.479 355.977 256.327 356.636 257.379C357.296 258.431 357.625 259.765 357.625 261.382C357.625 263.157 357.17 264.687 356.259 265.975C355.349 267.263 354.085 268.26 352.467 268.966C350.85 269.657 348.989 270.002 346.886 270.002C345.645 270.002 344.389 269.877 343.117 269.626C341.845 269.374 340.691 269.021 339.655 268.566C338.619 268.095 337.818 267.584 337.253 267.035V260.393C337.834 261.178 338.642 261.885 339.679 262.513C340.715 263.125 341.861 263.612 343.117 263.973C344.373 264.334 345.614 264.515 346.838 264.515C348.189 264.515 349.296 264.279 350.159 263.808C351.023 263.337 351.455 262.646 351.455 261.736C351.455 260.825 351.054 260.181 350.253 259.804C349.468 259.428 348.566 259.106 347.545 258.839L343.824 257.732C342.615 257.386 341.476 256.9 340.409 256.272C339.341 255.628 338.477 254.796 337.818 253.775C337.159 252.739 336.829 251.436 336.829 249.865C336.829 248.091 337.3 246.552 338.242 245.249C339.184 243.946 340.464 242.941 342.081 242.235C343.698 241.544 345.52 241.198 347.545 241.198C349.288 241.198 350.976 241.481 352.609 242.046C354.226 242.611 355.451 243.318 356.283 244.166ZM369.377 269.602H363.207L377.879 241.199L392.622 269.602H386.122L383.696 264.797H371.802L369.377 269.602ZM377.762 253.021L374.3 259.827H381.2L377.762 253.021ZM400.041 241.598H406.024V263.925H418.224V269.601H400.041L400.041 241.598ZM444.437 269.602H426.279V241.598H444.437V247.251H432.261V252.691H443.919V258.132H432.261V263.949H444.437V269.602ZM471.852 244.166V250.808C470.941 249.614 469.709 248.625 468.154 247.84C466.616 247.071 464.928 246.686 463.091 246.686C461.803 246.686 460.728 246.914 459.864 247.369C459 247.824 458.569 248.468 458.569 249.3C458.569 249.928 458.757 250.415 459.134 250.76C459.511 251.106 459.997 251.381 460.594 251.585C461.191 251.789 461.795 252.001 462.408 252.221L466.129 253.304C467.385 253.681 468.547 254.191 469.615 254.835C470.682 255.479 471.546 256.327 472.205 257.379C472.865 258.431 473.194 259.765 473.194 261.382C473.194 263.157 472.731 264.687 471.805 265.975C470.894 267.263 469.63 268.26 468.013 268.966C466.411 269.657 464.559 270.002 462.455 270.002C461.214 270.002 459.958 269.877 458.686 269.626C457.399 269.374 456.237 269.021 455.201 268.566C454.164 268.095 453.364 267.584 452.798 267.035V260.393C453.395 261.178 454.212 261.885 455.248 262.513C456.284 263.125 457.43 263.612 458.686 263.973C459.927 264.334 461.167 264.515 462.408 264.515C463.758 264.515 464.865 264.279 465.728 263.808C466.592 263.337 467.024 262.646 467.024 261.736C467.024 260.825 466.623 260.181 465.823 259.804C465.022 259.428 464.111 259.106 463.091 258.839L459.393 257.732C458.168 257.386 457.03 256.9 455.978 256.272C454.91 255.628 454.047 254.796 453.387 253.775C452.728 252.739 452.398 251.436 452.398 249.865C452.398 248.091 452.869 246.552 453.811 245.249C454.753 243.946 456.033 242.941 457.65 242.235C459.267 241.544 461.081 241.198 463.091 241.198C464.849 241.198 466.537 241.481 468.154 242.046C469.787 242.611 471.02 243.318 471.852 244.166Z" fill="#424242"/>
</g>
</svg>
